<?xml version="1.0" standalone="no"?>
<!DOCTYPE svg PUBLIC "-//W3C//DTD SVG 20010904//EN"
 "http://www.w3.org/TR/2001/REC-SVG-20010904/DTD/svg10.dtd">
<svg version="1.0" xmlns="http://www.w3.org/2000/svg"
 width="518.000000pt" height="518.000000pt" viewBox="0 0 518.000000 518.000000"
 preserveAspectRatio="xMidYMid meet">
<metadata>
Created by potrace 1.11, written by Peter Selinger 2001-2013
</metadata>
<g transform="translate(0.000000,518.000000) scale(0.100000,-0.100000)"
fill="#000000" stroke="none">
<path d="M2060 4013 c-91 -36 -192 -96 -249 -147 -12 -11 -32 -42 -43 -67
l-21 -47 -78 0 c-98 0 -123 -14 -194 -107 -30 -38 -71 -89 -92 -111 -70 -76
-74 -81 -79 -109 -3 -16 -9 -36 -14 -46 -6 -10 -10 -27 -10 -38 0 -14 -9 -21
-32 -26 -35 -6 -79 -25 -88 -37 -8 -10 -109 -78 -116 -78 -11 0 -55 -53 -65
-78 -5 -13 -9 -62 -9 -110 0 -67 -6 -107 -27 -174 -26 -83 -29 -87 -65 -99
-21 -6 -45 -23 -55 -37 -10 -14 -28 -36 -40 -49 -13 -13 -23 -28 -23 -33 0 -6
-4 -10 -10 -10 -5 0 -10 -7 -10 -15 0 -8 -4 -15 -9 -15 -11 0 -56 -85 -65
-124 -4 -16 -6 -67 -5 -115 6 -362 26 -427 135 -452 55 -13 253 -15 360 -4 58
6 73 5 87 -9 37 -38 149 -53 182 -26 9 8 23 6 49 -7 20 -9 36 -20 36 -24 0
-12 51 -28 170 -54 144 -31 181 -41 250 -70 30 -13 71 -25 90 -27 19 -1 44
-13 55 -24 11 -12 63 -39 115 -59 165 -65 308 -141 364 -192 20 -18 38 -33 41
-33 3 0 34 -17 68 -39 34 -21 71 -42 83 -45 12 -4 26 -17 32 -30 13 -28 62
-52 122 -59 49 -6 110 14 255 84 50 24 102 40 140 45 84 9 111 28 147 102 29
58 30 67 25 138 l-7 75 93 -8 c232 -20 498 0 641 48 56 19 88 46 164 134 18
22 42 80 42 105 0 11 4 20 9 20 18 0 89 107 99 150 9 40 22 132 26 194 3 37
-14 99 -42 156 -28 57 -41 72 -54 64 -4 -3 -8 2 -8 10 0 10 9 16 25 16 30 0
44 28 38 74 -4 39 -25 96 -35 96 -4 0 -8 4 -8 9 0 5 -5 22 -12 38 -6 15 -12
30 -13 33 -18 74 -85 195 -137 250 -19 19 -58 79 -88 133 -51 93 -83 130 -160
187 -18 14 -56 43 -84 66 -57 45 -127 93 -168 113 -16 8 -28 18 -28 23 0 4 -6
8 -12 8 -7 0 -31 14 -52 30 -22 16 -55 33 -75 36 -53 10 -94 30 -164 77 -95
66 -266 128 -384 140 -29 4 -74 16 -100 28 -42 20 -65 22 -194 23 l-147 1 -41
33 c-52 42 -107 66 -146 63 -35 -2 -85 -22 -85 -34 0 -5 -4 -5 -10 -2 -5 3
-10 1 -10 -6 0 -7 -8 -5 -20 6 -11 10 -20 24 -20 30 0 11 -21 21 -70 32 -32 8
-156 12 -170 6z"/>
</g>
</svg>
