<?xml version="1.0" standalone="no"?>
<!DOCTYPE svg PUBLIC "-//W3C//DTD SVG 20010904//EN"
 "http://www.w3.org/TR/2001/REC-SVG-20010904/DTD/svg10.dtd">
<svg version="1.0" xmlns="http://www.w3.org/2000/svg"
 width="915.000000pt" height="915.000000pt" viewBox="0 0 915.000000 915.000000"
 preserveAspectRatio="xMidYMid meet">
<metadata>
Created by potrace 1.16, written by Peter Selinger 2001-2019
</metadata>
<g transform="translate(0.000000,915.000000) scale(0.100000,-0.100000)"
fill="#000000" stroke="none">
<path d="M4880 7119 c-1161 -58 -2616 -531 -3543 -1153 -214 -143 -367 -267
-512 -411 -141 -141 -218 -237 -295 -367 -42 -70 -110 -229 -110 -258 0 -4 18
-11 40 -15 22 -4 42 -7 45 -8 3 -1 16 27 29 63 119 342 515 723 1121 1080 182
106 573 299 794 390 1400 577 2863 749 3706 435 148 -55 424 -192 556 -277
512 -329 863 -797 984 -1313 9 -38 21 -128 26 -199 5 -71 11 -131 13 -134 2
-2 24 0 49 3 l44 7 -4 71 c-15 260 -68 456 -188 699 -232 466 -624 843 -1140
1098 -388 192 -671 264 -1143 290 -195 11 -245 11 -472 -1z"/>
<path d="M520 3885 l0 -785 105 0 105 0 0 785 0 785 -105 0 -105 0 0 -785z"/>
<path d="M1080 3885 l0 -785 105 0 105 0 2 601 3 602 400 -601 400 -601 108
-1 107 0 0 785 0 785 -100 0 -100 0 -2 -601 -3 -601 -54 79 c-29 43 -211 313
-403 601 l-349 522 -109 0 -110 0 0 -785z"/>
<path d="M2440 3885 l0 -788 378 6 c413 6 467 12 578 67 80 39 137 99 182 189
36 74 37 77 37 195 0 112 -2 125 -28 178 -37 75 -103 140 -179 176 l-60 30 45
30 c57 40 88 77 123 149 25 49 28 69 29 148 0 81 -3 97 -32 158 -37 78 -109
154 -177 186 -107 50 -139 53 -528 58 l-368 5 0 -787z m719 574 c95 -20 151
-78 171 -175 9 -44 9 -64 -4 -107 -40 -135 -132 -167 -488 -167 l-178 0 0 230
0 230 225 0 c123 0 247 -5 274 -11z m82 -667 c96 -38 158 -127 159 -228 0
-105 -49 -187 -138 -231 l-57 -28 -272 -3 -273 -3 0 261 0 262 263 -4 c240 -4
267 -6 318 -26z"/>
<path d="M3900 3886 l0 -786 110 0 110 0 0 345 0 345 165 0 c139 0 172 -3 217
-20 99 -37 176 -135 439 -555 34 -55 67 -103 73 -107 6 -4 69 -8 140 -8 100 0
127 3 123 13 -5 13 -94 152 -251 392 -88 136 -202 263 -255 285 -17 7 -31 15
-31 19 0 3 30 13 68 22 145 35 247 111 304 227 32 64 33 72 33 182 0 108 -2
119 -32 182 -39 82 -101 152 -166 185 -98 49 -150 54 -614 60 l-433 6 0 -787z
m838 582 c85 -21 137 -63 171 -138 50 -110 3 -243 -105 -302 -71 -38 -162 -48
-438 -48 l-246 0 0 250 0 250 286 0 c184 0 302 -4 332 -12z"/>
<path d="M5885 4653 c-3 -10 -36 -94 -71 -188 -36 -93 -71 -186 -79 -205 -8
-19 -71 -183 -140 -365 -141 -367 -165 -431 -201 -523 -14 -35 -40 -102 -59
-150 -18 -48 -36 -95 -40 -104 -7 -17 2 -18 108 -18 l116 0 21 58 c12 31 48
129 80 217 32 88 61 168 65 178 7 16 32 17 329 17 l321 0 89 -235 90 -235 124
0 c95 0 123 3 119 13 -3 6 -139 338 -302 737 -164 399 -306 745 -315 770 l-18
45 -115 3 c-102 2 -115 1 -122 -15z m167 -328 c22 -60 43 -121 48 -135 4 -14
42 -115 84 -225 42 -110 76 -203 76 -207 0 -4 -112 -8 -250 -8 -137 0 -250 3
-250 6 0 4 39 111 86 238 78 208 103 282 144 426 7 26 15 39 18 30 3 -8 23
-64 44 -125z"/>
<path d="M6800 3885 l0 -785 105 0 105 0 0 785 0 785 -105 0 -105 0 0 -785z"/>
<path d="M7360 3885 l0 -785 105 0 105 0 2 599 3 600 400 -600 399 -599 108 0
108 0 0 785 0 785 -100 0 -100 0 -2 -604 -3 -603 -404 603 -404 604 -109 0
-108 0 0 -785z"/>
<path d="M8306 2886 c-7 -18 -17 -44 -21 -57 -16 -52 -128 -256 -183 -333
-116 -164 -299 -325 -492 -433 -202 -114 -509 -201 -825 -234 -258 -27 -704
-9 -1045 42 -798 119 -1820 439 -2765 864 -110 50 -102 49 -126 4 -11 -23 -19
-42 -17 -44 8 -8 304 -138 448 -197 1273 -518 2334 -779 3175 -778 990 1 1632
361 1921 1077 18 47 34 87 34 88 0 2 -20 10 -45 18 l-45 16 -14 -33z"/>
</g>
</svg>
